<?xml version="1.0" encoding="UTF-8"?><svg id="a" xmlns="http://www.w3.org/2000/svg" xmlns:xlink="http://www.w3.org/1999/xlink" viewBox="0 0 360 360"><defs><style>.k{fill:#ec008c;}.k,.l,.m{opacity:.6;}.k,.l,.m,.n,.o{fill-rule:evenodd;}.l{fill:#ffcb05;}.m{fill:#00a651;}.p{mask:url(#i);}.q{fill:url(#d);}.r{fill:url(#h);}.n,.s{fill:#58574b;}.t{fill:url(#j);}.u{fill:none;}.o{fill:#00aeef;opacity:.7;}.v{clip-path:url(#b);}.w{fill:url(#f);}.x{mask:url(#c);}.y{mask:url(#e);}.z{mask:url(#g);}</style><clipPath id="b"><rect class="u" width="360" height="360"/></clipPath><linearGradient id="d" x1="-73.1" y1="358.7" x2="-55" y2="358.7" gradientTransform="translate(134.6 -156.1)" gradientUnits="userSpaceOnUse"><stop offset="0" stop-color="#000"/><stop offset="1" stop-color="#fff"/></linearGradient><mask id="c" x="61.4" y="193.5" width="18.1" height="18.1" maskUnits="userSpaceOnUse"><rect class="q" x="61.4" y="193.5" width="18.1" height="18.1"/></mask><linearGradient id="f" x1="-82.2" y1="358.7" x2="-100.4" y2="358.7" gradientTransform="translate(179.9 -156.1)" gradientUnits="userSpaceOnUse"><stop offset="0" stop-color="#000"/><stop offset="1" stop-color="#fff"/></linearGradient><mask id="e" x="79.6" y="193.5" width="18.1" height="18.1" maskUnits="userSpaceOnUse"><rect class="w" x="79.6" y="193.5" width="18.1" height="18.1"/></mask><linearGradient id="h" x1="-73.1" y1="372.3" x2="-55" y2="372.3" gradientTransform="translate(134.6 -178.8)" gradientUnits="userSpaceOnUse"><stop offset="0" stop-color="#000"/><stop offset="1" stop-color="#fff"/></linearGradient><mask id="g" x="61.4" y="184.4" width="18.1" height="18.1" maskUnits="userSpaceOnUse"><rect class="r" x="61.4" y="184.4" width="18.1" height="18.1"/></mask><linearGradient id="j" x1="-82.2" y1="372.3" x2="-100.4" y2="372.3" gradientTransform="translate(179.9 -178.8)" gradientUnits="userSpaceOnUse"><stop offset="0" stop-color="#000"/><stop offset="1" stop-color="#fff"/></linearGradient><mask id="i" x="79.6" y="184.4" width="18.1" height="18.1" maskUnits="userSpaceOnUse"><rect class="t" x="79.6" y="184.4" width="18.1" height="18.1"/></mask></defs><g class="v"><path class="s" d="M279.8,187.5c0-.2,0-.3.3-.3h3.9c3.1,0,4.4,1.6,4.4,5.2s-1.3,5.3-4.4,5.3h-3.9c-.2,0-.3,0-.3-.3v-9.9ZM278.4,184.4c-.9,0-1.3.4-1.3,1.3v13.5c0,.9.4,1.3,1.3,1.3h5.7c4.7,0,7.3-2.6,7.3-8.1s-2.6-8.1-7.3-8.1h-5.7ZM258.8,187.8c0-.6.3-.9,1-.9s.8.2,1,.7l4.7,10.3c.7,1.8,1.7,3,3.9,3s3.7-1.4,3.7-3.5v-12.9h-2.8v12.8c0,.5-.4.9-1,.9s-.8-.3-1-.7l-4.7-10.3c-.7-1.8-1.7-3-3.9-3s-3.7,1.4-3.7,3.5v12.9h2.8v-12.8ZM244.2,184.4c-3.8,0-5.4,1.8-5.4,4.4s.8,3,2.3,3.6c-1.5.6-2.3,1.9-2.3,3.7s1.6,4.4,5.4,4.4h8.2v-2.8h-8.2c-1.6,0-2.4-.8-2.4-2s.8-2,2.5-2h8v-2.6h-7.9c-1.6,0-2.5-.6-2.5-1.9s.7-2,2.4-2h8.1v-2.8h-8.1ZM224.4,184.4v10.6c0,3.2,1.7,5.6,6,5.6h6.4v-2.8h-6.3c-2.5,0-3.3-1.2-3.3-2.8v-10.5h-2.8ZM210.2,187.5c0-.2.1-.3.3-.3h5.5c1.7,0,2.5.8,2.5,2.1s-.8,1.9-2.5,1.9h-5.7v-3.8ZM210.2,193.6h5.8c1.6,0,2.5.7,2.5,2.1s-.8,2.1-2.5,2.1h-5.5c-.2,0-.3,0-.3-.3v-3.9ZM208.7,184.4c-.9,0-1.3.4-1.3,1.3v13.5c0,.9.4,1.3,1.3,1.3h7.2c3.8,0,5.4-1.9,5.4-4.4s-.9-3.1-2.4-3.7c1.5-.6,2.3-1.7,2.3-3.6s-1.6-4.4-5.4-4.4h-7.1ZM186.1,184.4v2.8h4.7v13.3h2.8v-13.3h4.7v-2.8h-12.3ZM169.5,184.4v16.1h2.8v-6.7h8.2v6.7h2.8v-16.1h-2.8v6.6h-8.2v-6.6h-2.8ZM158.8,184.4c-4.7,0-7.3,2.7-7.3,8.1s2.6,8.1,7.3,8.1h2.5c3.6,0,5-2.2,5-5s-1.4-4.6-4.3-4.6h-3.9v2.5h3.6c1.3,0,2,.8,2,2.1s-.7,2.3-2.2,2.3h-2.7c-3.1,0-4.5-1.6-4.5-5.2s1.4-5.3,4.5-5.3h6.6v-2.8h-6.6ZM145.4,184.4v16.1h2.8v-16.1h-2.8ZM128.3,184.4v2.8h8.8c1.6,0,2.2,1,2.2,2.1s-.6,2.2-2.2,2.2h-6.3c-1.8,0-2.5.7-2.5,2.6v6.4h2.8v-5.8c0-.3.1-.4.4-.4h4.2l3.7,6.2h3.1l-3.8-6.5c2.5-.7,3.4-2.8,3.4-4.9s-1.6-4.8-5.2-4.8h-8.7ZM113.9,187.5c0-.2.1-.3.3-.3h5.5c1.7,0,2.5.8,2.5,2.1s-.8,1.9-2.5,1.9h-5.7v-3.8ZM113.9,193.6h5.8c1.6,0,2.5.7,2.5,2.1s-.8,2.1-2.5,2.1h-5.5c-.2,0-.3,0-.3-.3v-3.9ZM112.5,184.4c-.9,0-1.3.4-1.3,1.3v13.5c0,.9.4,1.3,1.3,1.3h7.2c3.8,0,5.4-1.9,5.4-4.4s-.9-3.1-2.4-3.7c1.5-.6,2.3-1.7,2.3-3.6s-1.6-4.4-5.4-4.4h-7.1Z"/><path class="l" d="M61.4,211.6h9.7c4.6,0,8.4-3.8,8.4-8.4v-1.3c0-4.6-3.8-8.4-8.4-8.4h-1.3c-4.6,0-8.4,3.8-8.4,8.4v9.7Z"/><path class="m" d="M97.7,211.6h-9.7c-4.6,0-8.4-3.8-8.4-8.4v-1.3c0-4.6,3.8-8.4,8.4-8.4h1.3c4.6,0,8.4,3.8,8.4,8.4v9.7Z"/><path class="k" d="M61.4,184.4h9.7c4.6,0,8.4,3.8,8.4,8.4v1.3c0,4.6-3.8,8.4-8.4,8.4h-1.3c-4.6,0-8.4-3.8-8.4-8.4v-9.7Z"/><g class="x"><path class="n" d="M61.4,211.6h9.7c4.6,0,8.4-3.8,8.4-8.4v-1.3c0-4.6-3.8-8.4-8.4-8.4h-1.3c-4.6,0-8.4,3.8-8.4,8.4v9.7ZM63.1,209.9v-8c0-3.7,3-6.7,6.7-6.7h1.3c3.7,0,6.7,3,6.7,6.7v1.3c0,3.7-3,6.7-6.7,6.7h-8Z"/></g><path class="o" d="M97.7,184.4h-9.7c-4.6,0-8.4,3.8-8.4,8.4v1.3c0,4.6,3.8,8.4,8.4,8.4h1.3c4.6,0,8.4-3.8,8.4-8.4v-9.7Z"/><g class="y"><path class="n" d="M97.7,211.6h-9.7c-4.6,0-8.4-3.8-8.4-8.4v-1.3c0-4.6,3.8-8.4,8.4-8.4h1.3c4.6,0,8.4,3.8,8.4,8.4v9.7ZM96,209.9v-8c0-3.7-3-6.7-6.7-6.7h-1.3c-3.7,0-6.7,3-6.7,6.7v1.3c0,3.7,3,6.7,6.7,6.7h8Z"/></g><g class="z"><path class="n" d="M61.4,184.4h9.7c4.6,0,8.4,3.8,8.4,8.4v1.3c0,4.6-3.8,8.4-8.4,8.4h-1.3c-4.6,0-8.4-3.8-8.4-8.4v-9.7ZM63.1,186.2v8c0,3.7,3,6.7,6.7,6.7h1.3c3.7,0,6.7-3,6.7-6.7v-1.3c0-3.7-3-6.7-6.7-6.7h-8Z"/></g><g class="p"><path class="n" d="M97.7,184.4h-9.7c-4.6,0-8.4,3.8-8.4,8.4v1.3c0,4.6,3.8,8.4,8.4,8.4h1.3c4.6,0,8.4-3.8,8.4-8.4v-9.7ZM96,186.2v8c0,3.7-3,6.7-6.7,6.7h-1.3c-3.7,0-6.7-3-6.7-6.7v-1.3c0-3.7,3-6.7,6.7-6.7h8Z"/></g></g><rect class="u" x="110.7" y="206.4" width="119.4" height="10.4"/><path class="s" d="M112.4,207.4h-1.6v-.8h4.2v.8h-1.6v4.1h-.9v-4.1Z"/><path class="s" d="M121.3,206.7v4.9h-.9v-2.1h-2.5v2.1h-.9v-4.9h.9v2h2.5v-2h.9Z"/><path class="s" d="M127.7,210.8v.8h-3.7v-4.9h3.6v.8h-2.7v1.3h2.4v.7h-2.4v1.4h2.8Z"/><path class="s" d="M133.5,206.7h.9v4.1h2.6v.8h-3.5v-4.9Z"/><path class="s" d="M142.7,210.8v.8h-3.7v-4.9h3.6v.8h-2.7v1.3h2.4v.7h-2.4v1.4h2.8Z"/><path class="s" d="M148.3,210.4h-2.5l-.5,1.1h-.9l2.2-4.9h.9l2.2,4.9h-1l-.5-1.1ZM148,209.7l-.9-2.1-.9,2.1h1.8Z"/><path class="s" d="M155,211.6l-1-1.4s-.1,0-.2,0h-1.1v1.4h-.9v-4.9h2c.4,0,.8,0,1.1.2.3.1.6.3.7.6s.3.6.3.9,0,.7-.3,1-.4.5-.8.6l1.1,1.6h-1ZM154.7,207.7c-.2-.2-.5-.3-.9-.3h-1.1v2h1.1c.4,0,.7,0,.9-.3s.3-.4.3-.7-.1-.6-.3-.7Z"/><path class="s" d="M162.7,206.7v4.9h-.7l-2.7-3.3v3.3h-.9v-4.9h.7l2.7,3.3v-3.3h.9Z"/><path class="s" d="M165.4,206.7h.9v4.9h-.9v-4.9Z"/><path class="s" d="M173.4,206.7v4.9h-.7l-2.7-3.3v3.3h-.9v-4.9h.7l2.7,3.3v-3.3h.9Z"/><path class="s" d="M179.4,209.1h.9v2c-.3.2-.5.4-.9.5-.3.1-.7.2-1,.2s-1-.1-1.4-.3c-.4-.2-.7-.5-.9-.9-.2-.4-.3-.8-.3-1.3s.1-.9.3-1.3c.2-.4.5-.7.9-.9.4-.2.9-.3,1.4-.3s.8,0,1.1.2.6.3.8.6l-.6.6c-.4-.4-.8-.6-1.4-.6s-.7,0-.9.2c-.3.1-.5.3-.6.6-.2.3-.2.6-.2.9s0,.6.2.9c.2.3.4.5.6.6.3.1.6.2.9.2s.7,0,1-.3v-1.5Z"/><path class="s" d="M190.6,206.7v4.9h-.9v-2.1h-2.5v2.1h-.9v-4.9h.9v2h2.5v-2h.9Z"/><path class="s" d="M193.8,211.1c-.4-.4-.6-.9-.6-1.6v-2.8h.9v2.7c0,1,.4,1.4,1.2,1.4s1.2-.5,1.2-1.4v-2.7h.9v2.8c0,.7-.2,1.3-.6,1.6-.4.4-.9.6-1.6.6s-1.2-.2-1.6-.6Z"/><path class="s" d="M204.3,209.5c.2.2.2.5.2.8s-.2.8-.5,1c-.3.2-.8.3-1.4.3h-2.4v-4.9h2.3c.6,0,1,.1,1.3.3.3.2.5.5.5.9s0,.5-.2.6c-.1.2-.3.3-.5.4.3,0,.5.2.6.4ZM201.1,207.4v1.4h1.3c.3,0,.6,0,.7-.2.2-.1.3-.3.3-.5s0-.4-.3-.5c-.2-.1-.4-.2-.7-.2h-1.3ZM203.7,210.1c0-.5-.4-.7-1.1-.7h-1.5v1.4h1.5c.7,0,1.1-.2,1.1-.7Z"/></svg>