<?xml version="1.0" encoding="UTF-8"?><svg id="a" xmlns="http://www.w3.org/2000/svg" xmlns:xlink="http://www.w3.org/1999/xlink" viewBox="0 0 360 360"><defs><style>.k{fill:#ec008c;}.k,.l,.m{opacity:.6;}.k,.l,.m,.n,.o,.p{fill-rule:evenodd;}.l{fill:#ffcb05;}.m{fill:#00a651;}.q{mask:url(#i);}.r{fill:url(#d);}.s{fill:url(#h);}.n,.t{fill:#58574b;}.u{fill:url(#j);}.v{fill:none;}.o{fill:#00aeef;opacity:.7;}.p{fill:#6d6c5d;}.w{clip-path:url(#b);}.x{fill:url(#f);}.y{mask:url(#c);}.z{mask:url(#e);}.aa{mask:url(#g);}</style><clipPath id="b"><rect class="v" width="360" height="360"/></clipPath><linearGradient id="d" x1="-63" y1="356.5" x2="-45.5" y2="356.5" gradientTransform="translate(134.6 -156.1)" gradientUnits="userSpaceOnUse"><stop offset="0" stop-color="#000"/><stop offset="1" stop-color="#fff"/></linearGradient><mask id="c" x="71.6" y="191.6" width="17.5" height="17.5" maskUnits="userSpaceOnUse"><rect class="r" x="71.6" y="191.6" width="17.5" height="17.5"/></mask><linearGradient id="f" x1="-73.3" y1="356.5" x2="-90.8" y2="356.5" gradientTransform="translate(179.9 -156.1)" gradientUnits="userSpaceOnUse"><stop offset="0" stop-color="#000"/><stop offset="1" stop-color="#fff"/></linearGradient><mask id="e" x="89.1" y="191.6" width="17.5" height="17.5" maskUnits="userSpaceOnUse"><rect class="x" x="89.1" y="191.6" width="17.5" height="17.5"/></mask><linearGradient id="h" x1="-63" y1="370.4" x2="-45.5" y2="370.4" gradientTransform="translate(134.6 -178.8)" gradientUnits="userSpaceOnUse"><stop offset="0" stop-color="#000"/><stop offset="1" stop-color="#fff"/></linearGradient><mask id="g" x="71.6" y="182.8" width="17.5" height="17.5" maskUnits="userSpaceOnUse"><rect class="s" x="71.6" y="182.8" width="17.5" height="17.5"/></mask><linearGradient id="j" x1="-73.3" y1="370.4" x2="-90.8" y2="370.4" gradientTransform="translate(179.9 -178.8)" gradientUnits="userSpaceOnUse"><stop offset="0" stop-color="#000"/><stop offset="1" stop-color="#fff"/></linearGradient><mask id="i" x="89.1" y="182.8" width="17.5" height="17.5" maskUnits="userSpaceOnUse"><rect class="u" x="89.1" y="182.8" width="17.5" height="17.5"/></mask></defs><g class="w"><path class="t" d="M293.3,187.5c0-.2,0-.3.3-.3h3.9c3.1,0,4.4,1.6,4.4,5.2s-1.3,5.3-4.4,5.3h-3.9c-.2,0-.3,0-.3-.3v-9.9ZM291.8,184.4c-.9,0-1.3.4-1.3,1.3v13.5c0,.9.4,1.3,1.3,1.3h5.7c4.7,0,7.3-2.6,7.3-8.1s-2.6-8.1-7.3-8.1h-5.7ZM272.3,187.8c0-.6.3-.9,1-.9s.8.2,1,.7l4.7,10.3c.7,1.8,1.7,3,3.9,3s3.7-1.4,3.7-3.5v-12.9h-2.8v12.8c0,.5-.4.9-1,.9s-.8-.3-1-.7l-4.7-10.3c-.7-1.8-1.7-3-3.9-3s-3.7,1.4-3.7,3.5v12.9h2.8v-12.8ZM257.7,184.4c-3.8,0-5.4,1.8-5.4,4.4s.8,3,2.3,3.6c-1.5.6-2.3,1.9-2.3,3.7s1.6,4.4,5.4,4.4h8.2v-2.8h-8.2c-1.6,0-2.4-.8-2.4-2s.8-2,2.5-2h8v-2.6h-7.9c-1.6,0-2.5-.6-2.5-1.9s.7-2,2.4-2h8.1v-2.8h-8.1ZM237.9,184.4v10.6c0,3.2,1.7,5.6,6,5.6h6.4v-2.8h-6.3c-2.5,0-3.3-1.2-3.3-2.8v-10.5h-2.8ZM223.6,187.5c0-.2.1-.3.3-.3h5.5c1.7,0,2.5.8,2.5,2.1s-.8,1.9-2.5,1.9h-5.7v-3.8ZM223.6,193.6h5.8c1.6,0,2.5.7,2.5,2.1s-.8,2.1-2.5,2.1h-5.5c-.2,0-.3,0-.3-.3v-3.9ZM222.2,184.4c-.9,0-1.3.4-1.3,1.3v13.5c0,.9.4,1.3,1.3,1.3h7.2c3.8,0,5.4-1.9,5.4-4.4s-.9-3.1-2.4-3.7c1.5-.6,2.3-1.7,2.3-3.6s-1.6-4.4-5.4-4.4h-7.1ZM199.6,184.4v2.8h4.7v13.3h2.8v-13.3h4.7v-2.8h-12.3ZM183,184.4v16.1h2.8v-6.7h8.2v6.7h2.8v-16.1h-2.8v6.6h-8.2v-6.6h-2.8ZM172.3,184.4c-4.7,0-7.3,2.7-7.3,8.1s2.6,8.1,7.3,8.1h2.5c3.6,0,5-2.2,5-5s-1.4-4.6-4.3-4.6h-3.9v2.5h3.6c1.3,0,2,.8,2,2.1s-.7,2.3-2.2,2.3h-2.7c-3.1,0-4.5-1.6-4.5-5.2s1.4-5.3,4.5-5.3h6.6v-2.8h-6.6ZM158.9,184.4v16.1h2.8v-16.1h-2.8ZM141.8,184.4v2.8h8.8c1.6,0,2.2,1,2.2,2.1s-.6,2.2-2.2,2.2h-6.3c-1.8,0-2.5.7-2.5,2.6v6.4h2.8v-5.8c0-.3.1-.4.4-.4h4.2l3.7,6.2h3.1l-3.8-6.5c2.5-.7,3.4-2.8,3.4-4.9s-1.6-4.8-5.2-4.8h-8.7ZM127.4,187.5c0-.2.1-.3.3-.3h5.5c1.7,0,2.5.8,2.5,2.1s-.8,1.9-2.5,1.9h-5.7v-3.8ZM127.4,193.6h5.8c1.6,0,2.5.7,2.5,2.1s-.8,2.1-2.5,2.1h-5.5c-.2,0-.3,0-.3-.3v-3.9ZM126,184.4c-.9,0-1.3.4-1.3,1.3v13.5c0,.9.4,1.3,1.3,1.3h7.2c3.8,0,5.4-1.9,5.4-4.4s-.9-3.1-2.4-3.7c1.5-.6,2.3-1.7,2.3-3.6s-1.6-4.4-5.4-4.4h-7.1Z"/><path class="p" d="M89.1,172.7c12.8,0,23.2,10.4,23.2,23.2s-10.4,23.2-23.2,23.2-23.2-10.4-23.2-23.2,10.4-23.2,23.2-23.2M89.1,171c13.8,0,24.9,11.2,24.9,24.9s-11.2,24.9-24.9,24.9-24.9-11.2-24.9-24.9,11.2-24.9,24.9-24.9Z"/><path class="l" d="M71.6,209.1h9.4c4.5,0,8.2-3.7,8.2-8.2v-1.2c0-4.5-3.7-8.2-8.2-8.2h-1.2c-4.5,0-8.2,3.7-8.2,8.2v9.4Z"/><path class="m" d="M106.6,209.1h-9.4c-4.5,0-8.2-3.7-8.2-8.2v-1.2c0-4.5,3.7-8.2,8.2-8.2h1.2c4.5,0,8.2,3.7,8.2,8.2v9.4Z"/><path class="k" d="M71.6,182.8h9.4c4.5,0,8.2,3.7,8.2,8.2v1.2c0,4.5-3.7,8.2-8.2,8.2h-1.2c-4.5,0-8.2-3.7-8.2-8.2v-9.4Z"/><g class="y"><path class="n" d="M71.6,209.1h9.4c4.5,0,8.2-3.7,8.2-8.2v-1.2c0-4.5-3.7-8.2-8.2-8.2h-1.2c-4.5,0-8.2,3.7-8.2,8.2v9.4ZM73.2,207.4v-7.7c0-3.6,2.9-6.5,6.5-6.5h1.2c3.6,0,6.5,2.9,6.5,6.5v1.2c0,3.6-2.9,6.5-6.5,6.5h-7.7Z"/></g><path class="o" d="M106.6,182.8h-9.4c-4.5,0-8.2,3.7-8.2,8.2v1.2c0,4.5,3.7,8.2,8.2,8.2h1.2c4.5,0,8.2-3.7,8.2-8.2v-9.4Z"/><g class="z"><path class="n" d="M106.6,209.1h-9.4c-4.5,0-8.2-3.7-8.2-8.2v-1.2c0-4.5,3.7-8.2,8.2-8.2h1.2c4.5,0,8.2,3.7,8.2,8.2v9.4ZM104.9,207.4v-7.7c0-3.6-2.9-6.5-6.5-6.5h-1.2c-3.6,0-6.5,2.9-6.5,6.5v1.2c0,3.6,2.9,6.5,6.5,6.5h7.7Z"/></g><g class="aa"><path class="n" d="M71.6,182.8h9.4c4.5,0,8.2,3.7,8.2,8.2v1.2c0,4.5-3.7,8.2-8.2,8.2h-1.2c-4.5,0-8.2-3.7-8.2-8.2v-9.4ZM73.2,184.5v7.7c0,3.6,2.9,6.5,6.5,6.5h1.2c3.6,0,6.5-2.9,6.5-6.5v-1.2c0-3.6-2.9-6.5-6.5-6.5h-7.7Z"/></g><g class="q"><path class="n" d="M106.6,182.8h-9.4c-4.5,0-8.2,3.7-8.2,8.2v1.2c0,4.5,3.7,8.2,8.2,8.2h1.2c4.5,0,8.2-3.7,8.2-8.2v-9.4ZM104.9,184.5v7.7c0,3.6-2.9,6.5-6.5,6.5h-1.2c-3.6,0-6.5-2.9-6.5-6.5v-1.2c0-3.6,2.9-6.5,6.5-6.5h7.7Z"/></g></g><rect class="v" x="185.3" y="206.4" width="119.4" height="10.4"/><path class="t" d="M212.2,207.4h-1.6v-.8h4.2v.8h-1.6v4.1h-.9v-4.1Z"/><path class="t" d="M221.2,206.7v4.9h-.9v-2.1h-2.5v2.1h-.9v-4.9h.9v2h2.5v-2h.9Z"/><path class="t" d="M227.6,210.8v.8h-3.7v-4.9h3.6v.8h-2.7v1.3h2.4v.7h-2.4v1.4h2.8Z"/><path class="t" d="M233.3,206.7h.9v4.1h2.6v.8h-3.5v-4.9Z"/><path class="t" d="M242.6,210.8v.8h-3.7v-4.9h3.6v.8h-2.7v1.3h2.4v.7h-2.4v1.4h2.8Z"/><path class="t" d="M248.2,210.4h-2.5l-.5,1.1h-.9l2.2-4.9h.9l2.2,4.9h-1l-.5-1.1ZM247.9,209.7l-.9-2.1-.9,2.1h1.8Z"/><path class="t" d="M254.8,211.6l-1-1.4s-.1,0-.2,0h-1.1v1.4h-.9v-4.9h2c.4,0,.8,0,1.1.2.3.1.6.3.7.6s.3.6.3.9,0,.7-.3,1-.4.5-.8.6l1.1,1.6h-1ZM254.5,207.7c-.2-.2-.5-.3-.9-.3h-1.1v2h1.1c.4,0,.7,0,.9-.3s.3-.4.3-.7-.1-.6-.3-.7Z"/><path class="t" d="M262.5,206.7v4.9h-.7l-2.7-3.3v3.3h-.9v-4.9h.7l2.7,3.3v-3.3h.9Z"/><path class="t" d="M265.2,206.7h.9v4.9h-.9v-4.9Z"/><path class="t" d="M273.2,206.7v4.9h-.7l-2.7-3.3v3.3h-.9v-4.9h.7l2.7,3.3v-3.3h.9Z"/><path class="t" d="M279.3,209.1h.9v2c-.3.2-.5.4-.9.5-.3.1-.7.2-1,.2s-1-.1-1.4-.3c-.4-.2-.7-.5-.9-.9-.2-.4-.3-.8-.3-1.3s.1-.9.3-1.3c.2-.4.5-.7.9-.9.4-.2.9-.3,1.4-.3s.8,0,1.1.2.6.3.8.6l-.6.6c-.4-.4-.8-.6-1.4-.6s-.7,0-.9.2c-.3.1-.5.3-.6.6-.2.3-.2.6-.2.9s0,.6.2.9c.2.3.4.5.6.6.3.1.6.2.9.2s.7,0,1-.3v-1.5Z"/><path class="t" d="M290.4,206.7v4.9h-.9v-2.1h-2.5v2.1h-.9v-4.9h.9v2h2.5v-2h.9Z"/><path class="t" d="M293.7,211.1c-.4-.4-.6-.9-.6-1.6v-2.8h.9v2.7c0,1,.4,1.4,1.2,1.4s1.2-.5,1.2-1.4v-2.7h.9v2.8c0,.7-.2,1.3-.6,1.6-.4.4-.9.6-1.6.6s-1.2-.2-1.6-.6Z"/><path class="t" d="M304.2,209.5c.2.2.2.5.2.8s-.2.8-.5,1c-.3.2-.8.3-1.4.3h-2.4v-4.9h2.3c.6,0,1,.1,1.3.3.3.2.5.5.5.9s0,.5-.2.6c-.1.2-.3.3-.5.4.3,0,.5.2.6.4ZM301,207.4v1.4h1.3c.3,0,.6,0,.7-.2.2-.1.3-.3.3-.5s0-.4-.3-.5c-.2-.1-.4-.2-.7-.2h-1.3ZM303.5,210.1c0-.5-.4-.7-1.1-.7h-1.5v1.4h1.5c.7,0,1.1-.2,1.1-.7Z"/></svg>